<svg role="heading" aria-level="1" width="548" height="146" viewBox="0 0 548 146" fill="white" xmlns="http://www.w3.org/2000/svg">
<title>Realignments: toward critical computation</title>
<path d="M2.90002 117.8H0.400024L1.00003 114.2H3.60004L4.50003 108.9H9.00003L8.10004 114.2H13.3L12.7 117.8H7.50003L5.40002 129.7C5.10002 131.3 5.60003 132 7.50003 132H10.2L9.50003 135.7H6.00003C2.20003 135.7 0.100024 134.1 0.900024 129.7L2.90002 117.8Z"/>
<path d="M22.9 136C17.4 136 13.7 132.3 13.7 127C13.7 119.7 19.2 113.9 26.7 113.9C32.2 113.9 36 117.6 36 123C36.1 130.3 30.4 136 22.9 136ZM23.5 132.3C28.1 132.3 31.5 128 31.5 123.2C31.5 119.5 29 117.6 26.2 117.6C21.5 117.6 18.4 122 18.4 126.8C18.4 130.4 20.6 132.3 23.5 132.3Z"/>
<path d="M39.6 114.2H44.1L45.6 131.5L53.2 114.2H57.8L59.2 131.4L66.6 114.2H71L60.5 135.7H55.8L54.3 119.8L47.1 135.7H42.4L39.6 114.2Z"/>
<path d="M83 113.8C86.6 113.8 88.8 115.5 89.8 117.3L90.3 114.2H94.8L91 135.7H86.5L87.1 132.5C85.4 134.3 82.5 136 78.9 136C73.3 136 69.6 131.4 70.8 124.8C72.1 118.2 77.4 113.8 83 113.8ZM83.3 117.7C80 117.7 76.3 120.2 75.5 124.8C74.7 129.4 77.4 132.1 80.7 132.1C84.1 132.1 87.7 129.5 88.5 124.8C89.4 120.3 86.7 117.7 83.3 117.7Z"/>
<path d="M96.9 135.7L100.7 114.2H105.1L104.4 118C106.1 115.5 108.5 113.9 111.6 113.9L110.8 118.5H109.7C106.4 118.5 104.2 119.9 103.4 124.3L101.4 135.8H96.9V135.7Z"/>
<path d="M124.4 113.8C127.2 113.8 129.9 115.1 131.2 117.2L133 106.8H137.5L132.4 135.7H128L128.6 132.5C126.9 134.5 124 136.1 120.5 136.1C114.8 136.1 111.1 131.5 112.3 124.9C113.5 118.2 118.7 113.8 124.4 113.8ZM124.7 117.7C121.4 117.7 117.7 120.2 116.9 124.8C116.1 129.4 118.8 132.1 122.1 132.1C125.5 132.1 129.1 129.5 129.9 124.8C130.7 120.3 128 117.7 124.7 117.7Z"/>
<path d="M162.8 113.8C168.1 113.8 171 116.4 171.5 120.9H166.7C166.3 118.8 164.8 117.5 162.2 117.5C158.6 117.5 155.8 120.2 154.9 124.8C154.1 129.5 156 132.2 159.6 132.2C162.3 132.2 164.1 131 165.3 128.8H170.1C168.1 133 164.2 135.9 158.9 135.9C152.7 135.9 149.1 131.5 150.3 124.8C151.5 118.2 156.7 113.8 162.8 113.8Z"/>
<path d="M173.3 135.7L177.1 114.2H181.5L180.8 118C182.5 115.5 184.9 113.9 188 113.9L187.2 118.5H186.1C182.8 118.5 180.6 119.9 179.8 124.3L177.8 135.8H173.3V135.7Z"/>
<path d="M192 114.2H196.4L192.6 135.7H188.2L192 114.2ZM192.4 108.5C192.7 106.9 194.2 105.7 195.8 105.7C197.4 105.7 198.4 106.9 198.1 108.5C197.8 110.1 196.3 111.3 194.8 111.3C193.2 111.3 192.2 110.1 192.4 108.5Z"/>
<path d="M202.3 117.8H199.8L200.4 114.2H203L203.9 108.9H208.4L207.5 114.2H212.7L212.1 117.8H206.9L204.8 129.7C204.5 131.3 205 132 206.9 132H209.6L208.9 135.7H205.4C201.6 135.7 199.5 134.1 200.3 129.7L202.3 117.8Z"/>
<path d="M216.7 114.2H221.1L217.3 135.7H212.9L216.7 114.2ZM217.2 108.5C217.5 106.9 219 105.7 220.6 105.7C222.2 105.7 223.2 106.9 222.9 108.5C222.6 110.1 221.1 111.3 219.6 111.3C217.9 111.3 216.9 110.1 217.2 108.5Z"/>
<path d="M236.1 113.8C241.4 113.8 244.3 116.4 244.8 120.9H240C239.6 118.8 238.1 117.5 235.5 117.5C231.9 117.5 229.1 120.2 228.2 124.8C227.4 129.5 229.3 132.2 232.9 132.2C235.6 132.2 237.4 131 238.6 128.8H243.4C241.4 133 237.5 135.9 232.2 135.9C226 135.9 222.4 131.5 223.6 124.8C224.8 118.2 230 113.8 236.1 113.8Z"/>
<path d="M259.1 113.8C262.7 113.8 264.9 115.5 265.9 117.3L266.4 114.2H270.9L267.1 135.7H262.6L263.2 132.5C261.5 134.3 258.6 136 255 136C249.4 136 245.7 131.4 246.9 124.8C248.2 118.2 253.4 113.8 259.1 113.8ZM259.4 117.7C256.1 117.7 252.4 120.2 251.6 124.8C250.8 129.4 253.5 132.1 256.8 132.1C260.2 132.1 263.8 129.5 264.6 124.8C265.4 120.3 262.7 117.7 259.4 117.7Z"/>
<path d="M278.1 106.8H282.5L277.4 135.7H273L278.1 106.8Z"/>
<path d="M307.8 113.8C313.1 113.8 316 116.4 316.5 120.9H311.7C311.3 118.8 309.8 117.5 307.2 117.5C303.6 117.5 300.8 120.2 299.9 124.8C299.1 129.5 301 132.2 304.6 132.2C307.3 132.2 309.1 131 310.3 128.8H315.1C313.1 133 309.2 135.9 303.9 135.9C297.7 135.9 294.1 131.5 295.3 124.8C296.5 118.2 301.6 113.8 307.8 113.8Z"/>
<path d="M327.6 136C322.1 136 318.4 132.3 318.4 127C318.4 119.7 323.9 113.9 331.4 113.9C336.9 113.9 340.7 117.6 340.7 123C340.8 130.3 335.1 136 327.6 136ZM328.2 132.3C332.8 132.3 336.2 128 336.2 123.2C336.2 119.5 333.7 117.6 330.9 117.6C326.2 117.6 323.1 122 323.1 126.8C323.1 130.4 325.3 132.3 328.2 132.3Z"/>
<path d="M375.7 123.7C376.4 119.8 374.6 117.7 371.4 117.7C368.1 117.7 365.6 119.7 364.9 123.7L362.8 135.7H358.4L360.5 123.7C361.2 119.8 359.4 117.7 356.2 117.7C352.9 117.7 350.4 119.7 349.7 123.7V123.6L347.6 135.7H343.2L347 114.2H351.4L351 116.7C352.7 114.9 355.3 113.9 357.9 113.9C361.3 113.9 363.9 115.3 364.9 118.2C366.7 115.6 369.9 113.9 373.1 113.9C378.1 113.9 381.4 117.1 380.4 123.1L378.1 135.8H373.7L375.7 123.7Z"/>
<path d="M399.4 113.8C405.1 113.8 408.7 118.2 407.6 124.8C406.4 131.4 401.2 136 395.5 136C392 136 389.7 134.2 388.6 132.5L386.3 145.8H381.9L387.5 114.1H391.9L391.4 117.3C392.9 115.6 395.9 113.8 399.4 113.8ZM397.7 117.7C394.4 117.7 390.7 120.3 389.9 124.9C389.1 129.5 391.8 132.2 395.1 132.2C398.5 132.2 402.1 129.5 402.9 124.9C403.8 120.2 401.1 117.7 397.7 117.7Z"/>
<path d="M429.4 135.7H425L425.4 133.2C423.7 135 421.1 136 418.6 136C413.6 136 410.3 132.8 411.3 126.8L413.5 114.2H417.9L415.8 126.2C415.1 130.1 416.9 132.2 420.1 132.2C423.3 132.2 425.8 130.2 426.5 126.5L428.6 114.3H433L429.4 135.7Z"/>
<path d="M439.1 117.8H436.6L437.2 114.2H439.8L440.7 108.9H445.2L444.3 114.2H449.5L448.9 117.8H443.7L441.6 129.7C441.3 131.3 441.8 132 443.7 132H446.4L445.7 135.7H442.2C438.4 135.7 436.3 134.1 437.1 129.7L439.1 117.8Z"/>
<path d="M462.2 113.8C465.8 113.8 468 115.5 469 117.3L469.5 114.2H474L470.2 135.7H465.7L466.3 132.5C464.6 134.3 461.7 136 458.1 136C452.5 136 448.8 131.4 450 124.8C451.3 118.2 456.6 113.8 462.2 113.8ZM462.5 117.7C459.2 117.7 455.5 120.2 454.7 124.8C453.9 129.4 456.6 132.1 459.9 132.1C463.3 132.1 466.9 129.5 467.7 124.8C468.5 120.3 465.9 117.7 462.5 117.7Z"/>
<path d="M480 117.8H477.5L478.1 114.2H480.7L481.6 108.9H486.1L485.2 114.2H490.4L489.8 117.8H484.6L482.5 129.7C482.2 131.3 482.7 132 484.6 132H487.3L486.6 135.7H483C479.2 135.7 477.1 134.1 477.9 129.7L480 117.8Z"/>
<path d="M494.4 114.2H498.8L495 135.7H490.6L494.4 114.2ZM494.8 108.5C495.1 106.9 496.6 105.7 498.2 105.7C499.8 105.7 500.8 106.9 500.5 108.5C500.2 110.1 498.7 111.3 497.2 111.3C495.5 111.3 494.5 110.1 494.8 108.5Z"/>
<path d="M510.2 136C504.7 136 501 132.3 501 127C501 119.7 506.5 113.9 514 113.9C519.5 113.9 523.3 117.6 523.3 123C523.4 130.3 517.6 136 510.2 136ZM510.8 132.3C515.4 132.3 518.8 128 518.8 123.2C518.8 119.5 516.3 117.6 513.5 117.6C508.8 117.6 505.7 122 505.7 126.8C505.7 130.4 507.9 132.3 510.8 132.3Z"/>
<path d="M543.1 123.7C543.8 119.8 542 117.7 538.8 117.7C535.5 117.7 533 119.7 532.3 123.7V123.6L530.2 135.7H525.8L529.6 114.2H534L533.6 116.7C535.4 114.9 537.9 113.9 540.5 113.9C545.5 113.9 548.8 117.1 547.7 123.1L545.4 135.8H541L543.1 123.7Z"/>
<path d="M21.1 0.700012C33.5 0.700012 39.7 7.80002 39.7 16.6C39.7 22.9 36.2 28.9 28.5 31.2L40.2 51.2H26.3L15.8 32.1H12.8V51.2H0.5V0.700012H21.1ZM20.4 10.9H12.8V23.4H20.4C25 23.4 27.2 21 27.2 17.1C27.2 13.3 25 10.9 20.4 10.9Z"/>
<path d="M78.8 10.5H60.2V20.7H76.7V30.2H60.2V41.3H78.8V51.2H47.8V0.700012H78.8V10.5Z"/>
<path d="M118.7 42.3H99.8L96.8 51.2H83.9L102.2 0.700012H116.5L134.8 51.2H121.8L118.7 42.3ZM109.2 14.3L103 32.8H115.5L109.2 14.3Z"/>
<path d="M153 0.700012V41.7H169.1V51.2H140.7V0.700012H153Z"/>
<path d="M175.5 0.700012H187.8V51.2H175.5V0.700012Z"/>
<path d="M244.3 16.7H230.7C228.8 13.3 225.4 11.5 220.8 11.5C212.9 11.5 207.6 17.1 207.6 25.9C207.6 35.3 212.9 40.7 221.8 40.7C227.9 40.7 232.2 37.5 234 31.8H218.4V22.7H245.2V34.1C242.6 42.8 234.2 51.5 220.9 51.5C205.8 51.5 195.1 40.9 195.1 25.8C195.1 10.7 205.7 0 220.8 0C232.9 0.1 241.6 6.3 244.3 16.7Z"/>
<path d="M297.7 0.700012V51.2H285.4L264.8 20V51.2H252.5V0.700012H264.8L285.4 32V0.700012H297.7Z"/>
<path d="M307 0.700012H321.5L335.7 35.7L349.7 0.700012H364.2V51.2H351.9V20.9L340.6 51.2H330.7L319.3 20.8V51.2H307V0.700012Z"/>
<path d="M404.5 10.5H385.9V20.7H402.4V30.2H385.9V41.3H404.5V51.2H373.5V0.700012H404.5V10.5Z"/>
<path d="M458.1 0.700012V51.2H445.8L425.2 20V51.2H412.9V0.700012H425.2L445.8 32V0.700012H458.1Z"/>
<path d="M464.8 0.700012H503.9V10.6H490.5V51.3H478.2V10.6H464.8V0.700012V0.700012Z"/>
<path d="M528.8 51.7C517.9 51.7 509.4 46.3 509.1 36.1H522.2C522.6 40 525 41.9 528.5 41.9C532.1 41.9 534.4 40.1 534.4 37.1C534.4 27.7 509.1 32.8 509.3 14.9C509.3 5.29999 517.1 0 527.7 0C538.7 0 546.1 5.50001 546.6 15.1H533.3C533.1 11.9 530.8 9.9 527.5 9.8C524.5 9.7 522.3 11.2 522.3 14.4C522.3 23.2 547.3 19.2 547.3 36.1C547.2 44.7 540.6 51.7 528.8 51.7Z"/>
</svg>
